<?xml version="1.0" encoding="UTF-8"?>
<svg version="1.1" xmlns="http://www.w3.org/2000/svg" width="32" height="32">
<path d="M0 0 C10.56 0 21.12 0 32 0 C32 10.56 32 21.12 32 32 C21.44 32 10.88 32 0 32 C0 21.44 0 10.88 0 0 Z " fill="#555555" transform="translate(0,0)"/>
<path d="M0 0 C5.94883916 0.12793202 5.94883916 0.12793202 8.1875 2.1875 C8.9375 5.8125 8.9375 5.8125 9.1875 9.1875 C6.47567788 11.79084924 5.29616187 12.18206691 1.4375 12.375 C0.365 12.313125 -0.7075 12.25125 -1.8125 12.1875 C-1.8125 14.8275 -1.8125 17.4675 -1.8125 20.1875 C-2.8025 20.1875 -3.7925 20.1875 -4.8125 20.1875 C-4.84138514 17.04168577 -4.85925923 13.89590531 -4.875 10.75 C-4.88337891 9.85216797 -4.89175781 8.95433594 -4.90039062 8.02929688 C-4.90361328 7.17529297 -4.90683594 6.32128906 -4.91015625 5.44140625 C-4.91801147 4.25526733 -4.91801147 4.25526733 -4.92602539 3.04516602 C-4.71107385 -0.47218084 -3.67034625 0.18050883 0 0 Z " fill="#E7E7E7" transform="translate(8.8125,5.8125)"/>
<path d="M0 0 C0.99 0 1.98 0 3 0 C3.1081866 2.58445773 3.18737237 5.16437352 3.25 7.75 C3.30027344 8.84441406 3.30027344 8.84441406 3.3515625 9.9609375 C3.41636054 13.52482986 3.30788876 15.57532585 1.1875 18.5 C-1.66639502 20.45695658 -3.61351402 20.30786236 -7 20 C-7.33 19.01 -7.66 18.02 -8 17 C-4.535 16.505 -4.535 16.505 -1 16 C-0.67 10.72 -0.34 5.44 0 0 Z " fill="#E5E5E5" transform="translate(25,6)"/>
<path d="M0 0 C2.31 0 4.62 0 7 0 C7.625 2.375 7.625 2.375 8 5 C6 7 6 7 2.875 7.125 C1.451875 7.063125 1.451875 7.063125 0 7 C0 4.69 0 2.38 0 0 Z " fill="#5B5B5B" transform="translate(7,9)"/>
</svg>
