<?xml version="1.0" encoding="UTF-8"?>
<svg version="1.1" xmlns="http://www.w3.org/2000/svg" width="500" height="500">
<path d="M0 0 C165 0 330 0 500 0 C500 165 500 330 500 500 C335 500 170 500 0 500 C0 335 0 170 0 0 Z " fill="#F0EEE6" transform="translate(0,0)"/>
<path d="M0 0 C4.72733653 1.72729604 7.61549761 4.31686505 11 8 C11.33 5.69 11.66 3.38 12 1 C15.96 1 19.92 1 24 1 C24.495 2.98 24.495 2.98 25 5 C25.804375 4.175 26.60875 3.35 27.4375 2.5 C30.84827125 -0.35855114 33.60606558 -0.52875902 37.94921875 -0.46875 C40.47345171 0.10821753 41.43149898 0.96841773 43 3 C43 3.66 43 4.32 43 5 C43.928125 4.360625 44.85625 3.72125 45.8125 3.0625 C51.80592908 -0.81560117 58.40832886 -0.98007098 65.32421875 0.49609375 C69.94967468 2.05553318 72.71266989 4.32592517 76 8 C76.99 8.495 76.99 8.495 78 9 C78.38671875 8.51789063 78.7734375 8.03578125 79.171875 7.5390625 C79.69265625 6.90742188 80.2134375 6.27578125 80.75 5.625 C81.51570313 4.68527344 81.51570313 4.68527344 82.296875 3.7265625 C84.78755007 1.20161209 86.84545052 0.14670018 90.3671875 -0.30078125 C95.69914044 -0.32569692 99.35405756 0.06572057 104 3 C104.33 2.34 104.66 1.68 105 1 C108.96 1 112.92 1 117 1 C117.07444911 6.56841139 117.12874318 12.13652964 117.16479492 17.70532227 C117.17983246 19.59762625 117.20026785 21.48989566 117.22631836 23.38208008 C117.26292399 26.11027586 117.2797769 28.83800871 117.29296875 31.56640625 C117.30845261 32.40522842 117.32393646 33.2440506 117.33988953 34.10829163 C117.34141726 39.50408475 116.5616293 43.22228835 114 48 C107.4423888 54.06579036 101.65755375 55.42245646 92.92578125 55.3515625 C87.28999266 54.67436494 81.97103704 52.26496362 78.21875 47.953125 C77 46 77 46 77 44 C78.26691507 43.32591692 79.53870749 42.66099503 80.8125 42 C81.52019531 41.62875 82.22789062 41.2575 82.95703125 40.875 C85 40 85 40 88 40 C88 40.66 88 41.32 88 42 C92.04577269 43.3485909 95.76984157 43.55740355 100 43 C102.65154031 41.4348581 102.65154031 41.4348581 104 39 C104 37.68 104 36.36 104 35 C102.824375 35.495 102.824375 35.495 101.625 36 C95.6616074 37.64507382 90.29591486 38.169617 84.6875 35.3125 C81.98532245 32.98737048 79.44764818 30.59162749 77 28 C76.54625 28.7425 76.0925 29.485 75.625 30.25 C70.68447239 35.42579083 64.43113046 37.21539947 57.375 37.5 C51.43611478 37.24835232 46.80560471 35.67677592 42.46875 31.5390625 C37.53108852 25.88371767 36.65174388 22.31337851 37 15 C37.33 14.01 37.66 13.02 38 12 C36.3973218 11.89175157 34.79254252 11.81429355 33.1875 11.75 C31.84751953 11.68039063 31.84751953 11.68039063 30.48046875 11.609375 C27.89651088 11.75651025 27.89651088 11.75651025 26.37695312 13.7265625 C24.8220239 16.2938499 24.58366424 17.78967569 24.48828125 20.765625 C24.45283203 21.65507812 24.41738281 22.54453125 24.38085938 23.4609375 C24.35830078 24.38132812 24.33574219 25.30171875 24.3125 26.25 C24.27833984 27.18585938 24.24417969 28.12171875 24.20898438 29.0859375 C24.12668898 31.39020846 24.06166287 33.69508463 24 36 C20.04 36 16.08 36 12 36 C11.505 32.04 11.505 32.04 11 28 C10.62488281 28.48210937 10.24976563 28.96421875 9.86328125 29.4609375 C4.50102852 36.07933508 4.50102852 36.07933508 0 37 C-6.38744014 37.57106253 -9.2883065 37.4270161 -15 34 C-15.33 40.6 -15.66 47.2 -16 54 C-19.96 54 -23.92 54 -28 54 C-28 36.51 -28 19.02 -28 1 C-24.04 1 -20.08 1 -16 1 C-15.67 1.99 -15.34 2.98 -15 4 C-14.195625 3.34 -13.39125 2.68 -12.5625 2 C-8.52165454 -0.68434414 -4.70536543 -0.69395677 0 0 Z " fill="#050504" transform="translate(63,233)"/>
<path d="M0 0 C0.78375 0.495 1.5675 0.99 2.375 1.5 C2.705 0.84 3.035 0.18 3.375 -0.5 C10.965 -0.5 18.555 -0.5 26.375 -0.5 C27.53 2.09875 28.685 4.6975 29.875 7.375 C30.24044922 8.19210449 30.60589844 9.00920898 30.98242188 9.85107422 C31.26666016 10.4957666 31.55089844 11.14045898 31.84375 11.8046875 C32.13701172 12.46452637 32.43027344 13.12436523 32.73242188 13.80419922 C33.375 15.5 33.375 15.5 33.375 17.5 C34.035 17.5 34.695 17.5 35.375 17.5 C35.54515625 16.95472656 35.7153125 16.40945312 35.890625 15.84765625 C37.70375234 10.20574406 39.89705144 4.88312963 42.375 -0.5 C47.325 -0.5 52.275 -0.5 57.375 -0.5 C57.045 0.82 56.715 2.14 56.375 3.5 C57.15875 2.860625 57.9425 2.22125 58.75 1.5625 C63.47383887 -2.14908768 67.50468071 -2.0385614 73.375 -1.5 C77 0 77 0 79.375 1.5 C79.705 0.84 80.035 0.18 80.375 -0.5 C84.335 -0.5 88.295 -0.5 92.375 -0.5 C92.375 11.05 92.375 22.6 92.375 34.5 C88.415 34.5 84.455 34.5 80.375 34.5 C80.045 33.51 79.715 32.52 79.375 31.5 C78.59125 32.16 77.8075 32.82 77 33.5 C72.71625661 36.34229419 68.34063577 36.29385368 63.375 35.5 C58.2853411 33.0031862 53.85593622 28.91754512 51.5625 23.625 C51.26396524 20.24160603 51.32021735 16.89652442 51.375 13.5 C51.375 12.84 51.375 12.18 51.375 11.5 C51.01672119 12.1612085 50.65844238 12.82241699 50.28930664 13.50366211 C48.6738498 16.48259493 47.05571216 19.46006309 45.4375 22.4375 C44.87353516 23.47841797 44.30957031 24.51933594 43.72851562 25.59179688 C43.19033203 26.58115234 42.65214844 27.57050781 42.09765625 28.58984375 C41.60015869 29.50628662 41.10266113 30.42272949 40.59008789 31.36694336 C39.375 33.5 39.375 33.5 38.375 34.5 C35.70441149 34.64115161 33.05067762 34.54247107 30.375 34.5 C25.61087317 26.21719066 20.91906668 17.90652336 16.375 9.5 C16.045 17.75 15.715 26 15.375 34.5 C11.415 34.5 7.455 34.5 3.375 34.5 C3.375 33.51 3.375 32.52 3.375 31.5 C2.42625 32.16 1.4775 32.82 0.5 33.5 C-4.10398524 36.11483949 -8.44855396 36.34705481 -13.625 35.5 C-18.13762945 33.24368527 -20.56608876 30.42451803 -23.625 26.5 C-23.64626953 28.2015625 -23.64626953 28.2015625 -23.66796875 29.9375 C-24.0938316 46.21953612 -24.0938316 46.21953612 -29.625 51.5 C-33.69717669 54.14141191 -37.91281378 53.79918643 -42.625 53.5 C-45.125 52.5 -45.125 52.5 -46.625 51.5 C-46.11787967 47.78111761 -45.50891785 44.76545761 -43.625 41.5 C-41.975 41.5 -40.325 41.5 -38.625 41.5 C-36.93473863 38.11947726 -37.38055041 34.27739858 -37.30859375 30.5546875 C-37.28781265 29.6696756 -37.26703156 28.7846637 -37.24562073 27.87283325 C-37.18013402 25.04030259 -37.12124438 22.20767775 -37.0625 19.375 C-37.01931394 17.45702143 -36.97569963 15.53905246 -36.93164062 13.62109375 C-36.82445353 8.91415949 -36.7231836 4.20713033 -36.625 -0.5 C-32.665 -0.5 -28.705 -0.5 -24.625 -0.5 C-24.295 2.14 -23.965 4.78 -23.625 7.5 C-23.23828125 7.01789063 -22.8515625 6.53578125 -22.453125 6.0390625 C-21.93234375 5.40742188 -21.4115625 4.77578125 -20.875 4.125 C-20.36453125 3.49851563 -19.8540625 2.87203125 -19.328125 2.2265625 C-14.07566574 -3.09817831 -6.53689144 -2.70492059 0 0 Z " fill="#050505" transform="translate(358.625,234.5)"/>
<path d="M0 0 C0.99 0.66 1.98 1.32 3 2 C2.67 3.65 2.34 5.3 2 7 C2.45890625 6.57847656 2.9178125 6.15695313 3.390625 5.72265625 C4.00421875 5.17480469 4.6178125 4.62695312 5.25 4.0625 C5.85328125 3.51722656 6.4565625 2.97195312 7.078125 2.41015625 C11.36432932 -0.73480261 16.88572234 -0.61304149 22 0 C26.85622565 1.64719078 30.64370962 4.08432789 34 8 C34.53625 7.236875 35.0725 6.47375 35.625 5.6875 C38.78915465 2.10700922 41.49085724 0.26943815 46.328125 -0.25 C51.8742417 -0.38610102 56.69456554 0.42801942 62 2 C60.125 7.75 60.125 7.75 59 10 C55.37 9.67 51.74 9.34 48 9 C48 9.99 48 10.98 48 12 C48.66386719 12.21914062 49.32773437 12.43828125 50.01171875 12.6640625 C56.03074449 14.82563963 59.45708306 16.62848077 63 22 C63.495 23.485 63.495 23.485 64 25 C65.93618425 25.67156616 65.93618425 25.67156616 68 26 C68.66 26.33 69.32 26.66 70 27 C71.99960012 27.039992 74.00047242 27.04346799 76 27 C76 26.01 76 25.02 76 24 C75.32453125 23.69707031 74.6490625 23.39414062 73.953125 23.08203125 C64.48798417 18.63669777 64.48798417 18.63669777 62 14 C61.4375 11.0625 61.4375 11.0625 62 8 C64.57967745 4.27379923 66.7795306 1.67577461 71 0 C77.27565982 -0.72575658 82.9936642 0.22034495 89 2 C87.125 7.75 87.125 7.75 86 10 C82.04 9.67 78.08 9.34 74 9 C74.495 10.485 74.495 10.485 75 12 C77.19315233 13.10236511 77.19315233 13.10236511 79.8125 13.9375 C84.52014809 15.69278022 87.68528541 17.37057082 90 22 C90.17246625 25.81675306 90.11234219 29.57366332 87.69921875 32.66796875 C81.93159698 37.54826409 76.21642394 37.59507161 69 37 C67.2127916 36.49192218 65.43955061 35.93102696 63.6875 35.3125 C59.91588897 33.93661133 59.91588897 33.93661133 56.1875 35.3125 C55.135625 35.869375 54.08375 36.42625 53 37 C45.43630439 37.98397617 39.51079339 37.70904252 33.29296875 33.09375 C32.86628906 32.7328125 32.43960938 32.371875 32 32 C31.0925 32.639375 30.185 33.27875 29.25 33.9375 C24.00415179 37.26659598 19.11093265 37.56869932 13 37 C6.69210028 35.00249842 3.3290584 31.81093256 -0.8125 26.8125 C-2.58138718 22.62303036 -2.41332724 18.49095942 -2 14 C-1.67 13.34 -1.34 12.68 -1 12 C-2.79093191 11.91913853 -4.58289628 11.86087298 -6.375 11.8125 C-7.37273437 11.77769531 -8.37046875 11.74289063 -9.3984375 11.70703125 C-10.68621094 11.85205078 -10.68621094 11.85205078 -12 12 C-14.12280563 15.18420845 -14.28019537 16.20537255 -14.4140625 19.88671875 C-14.47207031 21.2934082 -14.47207031 21.2934082 -14.53125 22.72851562 C-14.5621875 23.70498047 -14.593125 24.68144531 -14.625 25.6875 C-14.68300781 27.16959961 -14.68300781 27.16959961 -14.7421875 28.68164062 C-14.83645399 31.1207861 -14.9193159 33.56036747 -15 36 C-18.96 36 -22.92 36 -27 36 C-27 24.45 -27 12.9 -27 1 C-23.04 1 -19.08 1 -15 1 C-14.67 1.99 -14.34 2.98 -14 4 C-13.175 3.34 -12.35 2.68 -11.5 2 C-7.58888608 -0.61979602 -4.6250086 -0.45491888 0 0 Z " fill="#040404" transform="translate(209,233)"/>
<path d="M0 0 C4.72733653 1.72729604 7.61549761 4.31686505 11 8 C11.33 5.69 11.66 3.38 12 1 C15.96 1 19.92 1 24 1 C24.495 2.98 24.495 2.98 25 5 C25.804375 4.175 26.60875 3.35 27.4375 2.5 C30.84827125 -0.35855114 33.60606558 -0.52875902 37.94921875 -0.46875 C40.43860701 0.10025303 41.38319357 1.07009772 43 3 C41.68696061 6.03381207 40.30442807 8.60890096 38 11 C35.33266377 11.66683406 33.04771833 11.7552498 30.3046875 11.671875 C27.87581392 11.77213241 27.87581392 11.77213241 26.38793945 13.72265625 C24.82100415 16.29369803 24.58393989 17.78107536 24.48828125 20.765625 C24.45283203 21.65507812 24.41738281 22.54453125 24.38085938 23.4609375 C24.35830078 24.38132812 24.33574219 25.30171875 24.3125 26.25 C24.27833984 27.18585938 24.24417969 28.12171875 24.20898438 29.0859375 C24.12668898 31.39020846 24.06166287 33.69508463 24 36 C20.04 36 16.08 36 12 36 C11.505 32.04 11.505 32.04 11 28 C10.62488281 28.48210937 10.24976563 28.96421875 9.86328125 29.4609375 C4.50102852 36.07933508 4.50102852 36.07933508 0 37 C-6.38744014 37.57106253 -9.2883065 37.4270161 -15 34 C-15.33 40.6 -15.66 47.2 -16 54 C-19.96 54 -23.92 54 -28 54 C-28 36.51 -28 19.02 -28 1 C-24.04 1 -20.08 1 -16 1 C-15.67 1.99 -15.34 2.98 -15 4 C-14.195625 3.34 -13.39125 2.68 -12.5625 2 C-8.52165454 -0.68434414 -4.70536543 -0.69395677 0 0 Z " fill="#050404" transform="translate(63,233)"/>
<path d="M0 0 C-1.875 5.75 -1.875 5.75 -3 8 C-8.445 7.505 -8.445 7.505 -14 7 C-14 7.99 -14 8.98 -14 10 C-13.33613281 10.21914062 -12.67226563 10.43828125 -11.98828125 10.6640625 C-5.96925551 12.82563963 -2.54291694 14.62848077 1 20 C1.33 20.99 1.66 21.98 2 23 C3.93618425 23.67156616 3.93618425 23.67156616 6 24 C6.66 24.33 7.32 24.66 8 25 C9.99960012 25.039992 12.00047242 25.04346799 14 25 C14 24.01 14 23.02 14 22 C12.98679687 21.54560547 12.98679687 21.54560547 11.953125 21.08203125 C2.48798417 16.63669777 2.48798417 16.63669777 0 12 C-0.5625 9.0625 -0.5625 9.0625 0 6 C2.57967745 2.27379923 4.7795306 -0.32422539 9 -2 C15.27565982 -2.72575658 20.9936642 -1.77965505 27 0 C25.125 5.75 25.125 5.75 24 8 C20.04 7.67 16.08 7.34 12 7 C12.495 8.485 12.495 8.485 13 10 C15.19315233 11.10236511 15.19315233 11.10236511 17.8125 11.9375 C22.52014809 13.69278022 25.68528541 15.37057082 28 20 C28.17246625 23.81675306 28.11234219 27.57366332 25.69921875 30.66796875 C19.93159698 35.54826409 14.21642394 35.59507161 7 35 C5.2127916 34.49192218 3.43955061 33.93102696 1.6875 33.3125 C-2.08411103 31.93661133 -2.08411103 31.93661133 -5.8125 33.3125 C-6.864375 33.869375 -7.91625 34.42625 -9 35 C-16.71369456 35.90160066 -22.69342389 35.69326594 -29 31 C-28.50769231 25.46153846 -28.50769231 25.46153846 -25.9375 23.125 C-24.9784375 22.568125 -24.9784375 22.568125 -24 22 C-23.29875 22.495 -22.5975 22.99 -21.875 23.5 C-18.62880281 25.1936681 -16.60659844 25.25162315 -13 25 C-13 24.01 -13 23.02 -13 22 C-13.90492188 21.61908203 -13.90492188 21.61908203 -14.828125 21.23046875 C-22.76625659 17.81195079 -22.76625659 17.81195079 -26 15 C-26.33 15.99 -26.66 16.98 -27 18 C-28.75669751 8.51001456 -28.75669751 8.51001456 -26.4375 4.0625 C-19.55843595 -4.58042662 -9.56552213 -2.83422878 0 0 Z " fill="#070707" transform="translate(271,235)"/>
<path d="M0 0 C3.625 1.5 3.625 1.5 6 3 C6.33 2.34 6.66 1.68 7 1 C10.96 1 14.92 1 19 1 C19 12.55 19 24.1 19 36 C15.04 36 11.08 36 7 36 C6.67 35.01 6.34 34.02 6 33 C5.21625 33.66 4.4325 34.32 3.625 35 C-0.65874339 37.84229419 -5.03436423 37.79385368 -10 37 C-15.0896589 34.5031862 -19.51906378 30.41754512 -21.8125 25.125 C-22.39439804 18.5301556 -22.46193452 12.8299939 -19 7 C-13.13470063 0.74096526 -8.50411842 -0.78019435 0 0 Z " fill="#040404" transform="translate(432,233)"/>
<path d="M0 0 C3.63 0 7.26 0 11 0 C11.09906019 6.4411981 11.17156012 12.88195034 11.21972656 19.32373047 C11.23981107 21.51391324 11.26708417 23.70404259 11.30175781 25.89404297 C11.35041409 29.04668376 11.37300078 32.19861404 11.390625 35.3515625 C11.41127014 36.32678864 11.43191528 37.30201477 11.45318604 38.30679321 C11.45511896 44.19595909 10.92197158 47.51425632 7 52 C2.81980336 54.55456461 -1.23999451 54.30222257 -6 54 C-8.5 53 -8.5 53 -10 52 C-9.49287967 48.28111761 -8.88391785 45.26545761 -7 42 C-5.35 42 -3.7 42 -2 42 C-0.30973863 38.61947726 -0.75555041 34.77739858 -0.68359375 31.0546875 C-0.66281265 30.1696756 -0.64203156 29.2846637 -0.62062073 28.37283325 C-0.55513402 25.54030259 -0.49624438 22.70767775 -0.4375 19.875 C-0.39431394 17.95702143 -0.35069963 16.03905246 -0.30664062 14.12109375 C-0.19945353 9.41415949 -0.0981836 4.70713033 0 0 Z " fill="#020202" transform="translate(322,234)"/>
<path d="M0 0 C0.99 0.66 1.98 1.32 3 2 C1.94124926 5.40312738 0.99097846 8.01353231 -1 11 C-3.83718397 11.45535051 -6.59847349 11.50310969 -9.46875 11.59375 C-10.3040625 11.7278125 -11.139375 11.861875 -12 12 C-14.12280563 15.18420845 -14.28019537 16.20537255 -14.4140625 19.88671875 C-14.47207031 21.2934082 -14.47207031 21.2934082 -14.53125 22.72851562 C-14.5621875 23.70498047 -14.593125 24.68144531 -14.625 25.6875 C-14.68300781 27.16959961 -14.68300781 27.16959961 -14.7421875 28.68164062 C-14.83645399 31.1207861 -14.9193159 33.56036747 -15 36 C-18.96 36 -22.92 36 -27 36 C-27 24.45 -27 12.9 -27 1 C-23.04 1 -19.08 1 -15 1 C-14.67 1.99 -14.34 2.98 -14 4 C-13.175 3.34 -12.35 2.68 -11.5 2 C-7.58888608 -0.61979602 -4.6250086 -0.45491888 0 0 Z " fill="#030303" transform="translate(209,233)"/>
<path d="M0 0 C4.66666667 2.33333333 9.33333333 4.66666667 14 7 C13.67 8.32 13.34 9.64 13 11 C8.32538149 11.32613618 5.83325617 10.70582788 2 8 C1.34 8.66 0.68 9.32 0 10 C-2.84502135 9.69075855 -5.45779776 9.17040642 -8.1875 8.3125 C-10.3371308 7.72786063 -10.3371308 7.72786063 -13 10 C-17.3787281 10.69350021 -20.89204069 10.78367853 -24.5625 8.1875 C-26 6 -26 6 -26 3 C-17.42 3 -8.84 3 0 3 C0 2.01 0 1.02 0 0 Z " fill="#E2E0D8" transform="translate(245,250)"/>
<path d="M0 0 C4.10703441 0.85563217 5.55401113 2.24378009 8 5.625 C8.625 9.125 8.625 9.125 8 12.625 C5.55401113 16.00621991 4.10703441 17.39436783 0 18.25 C-4.10703441 17.39436783 -5.55401113 16.00621991 -8 12.625 C-8.625 9.125 -8.625 9.125 -8 5.625 C-5.55401113 2.24378009 -4.10703441 0.85563217 0 0 Z " fill="#E4E2DB" transform="translate(354,242.375)"/>
<path d="M0 0 C4.10703441 0.85563217 5.55401113 2.24378009 8 5.625 C8.625 9.125 8.625 9.125 8 12.625 C5.55401113 16.00621991 4.10703441 17.39436783 0 18.25 C-4.10703441 17.39436783 -5.55401113 16.00621991 -8 12.625 C-8.625 9.125 -8.625 9.125 -8 5.625 C-5.55401113 2.24378009 -4.10703441 0.85563217 0 0 Z " fill="#E4E2DB" transform="translate(160,242.375)"/>
<path d="M0 0 C4.10703441 0.85563217 5.55401113 2.24378009 8 5.625 C8.625 9.125 8.625 9.125 8 12.625 C5.55401113 16.00621991 4.10703441 17.39436783 0 18.25 C-4.10703441 17.39436783 -5.55401113 16.00621991 -8 12.625 C-8.625 9.125 -8.625 9.125 -8 5.625 C-5.55401113 2.24378009 -4.10703441 0.85563217 0 0 Z " fill="#E5E3DB" transform="translate(55,242.375)"/>
<path d="M0 0 C3.8425303 0.72047443 5.45767292 1.57152696 8 4.5625 C8.7975483 9.58705429 8.82360163 11.39976829 5.875 15.5625 C3 17.5625 3 17.5625 0 18.25 C-4.35321372 17.25238852 -5.65945491 15.27983632 -8 11.5625 C-8.625 8.5 -8.625 8.5 -8 5.5625 C-5.53959272 2.23371368 -4.10389613 0.76948052 0 0 Z " fill="#E5E3DC" transform="translate(121,242.4375)"/>
<path d="M0 0 C3.71317907 1.14770989 5.2692056 1.85342428 7.4375 5.0625 C7.92126933 8.93265465 7.73301985 11.84877221 5.4375 15.0625 C2.76116974 17.1440902 1.31996332 17.05837591 -2.125 16.9375 C-5.5625 16.0625 -5.5625 16.0625 -7.5 14.4375 C-9.0215889 11.03630129 -9.07999792 8.74967269 -8.5625 5.0625 C-5.90798953 1.20139386 -4.7398766 0.08315573 0 0 Z " fill="#E7E5DE" transform="translate(431.5625,242.9375)"/>
<path d="M0 0 C1 3 1 3 0.8125 5.875 C1.06226784 10.03779728 1.94084318 11.15935438 5 14 C8.25241294 15.85560864 11.58449325 17.46823648 15 19 C14.67 20.32 14.34 21.64 14 23 C8.375 23.25 8.375 23.25 5 21 C3.68 21 2.36 21 1 21 C0.38125 19.3603125 0.38125 19.3603125 -0.25 17.6875 C-3.08449499 11.21236924 -8.79635657 9.61136273 -15 7 C-14.67 5.68 -14.34 4.36 -14 3 C-6.57142857 4 -6.57142857 4 -3 5 C-2.87625 4.360625 -2.7525 3.72125 -2.625 3.0625 C-2.41875 2.381875 -2.2125 1.70125 -2 1 C-1.34 0.67 -0.68 0.34 0 0 Z " fill="#E3E1D9" transform="translate(271,238)"/>
<path d="M0 0 C1.94140625 0.3828125 1.94140625 0.3828125 4.44140625 2.0078125 C6.42338939 5.14595248 6.61204683 6.73154715 5.94140625 10.3828125 C3.45538176 13.74625739 2.02715102 15.18338999 -2.12109375 15.9453125 C-5.05859375 15.3828125 -5.05859375 15.3828125 -7.43359375 13.8203125 C-9.66715065 10.46997715 -9.55257584 8.3346692 -9.05859375 4.3828125 C-7.24997024 -0.02570731 -4.5929287 -0.25375297 0 0 Z " fill="#050505" transform="translate(462.05859375,254.6171875)"/>
<path d="M0 0 C2.875 1 2.875 1 4.8125 2.625 C6.37300943 6.11319754 5.86654664 8.36432898 4.875 12 C2.75628452 14.34572071 1.4724873 14.89543972 -1.625 15.4375 C-4.125 15 -4.125 15 -6.4375 13.4375 C-8.78263142 10.05008795 -8.77316244 8.03301072 -8.125 4 C-5.45946825 0.86408029 -4.13747529 0 0 0 Z " fill="#0C0C0C" transform="translate(329.125,212)"/>
<path d="M0 0 C3.5625 0.3125 3.5625 0.3125 5.5 1.625 C6.5625 3.3125 6.5625 3.3125 6.5625 6.3125 C2.2725 6.3125 -2.0175 6.3125 -6.4375 6.3125 C-4.97238372 0.45203488 -4.97238372 0.45203488 0 0 Z " fill="#D0CFC8" transform="translate(226.4375,240.6875)"/>
</svg>
